HIERARCHY
ROOT Hips
{
    OFFSET 0.000000 0.000000 0.000000
    CHANNELS 6 Xposition Yposition Zposition Zrotation Xrotation Yrotation
    JOINT Spine
    {
        OFFSET -0.000000 7.236184 0.000000
        CHANNELS 3 Zrotation Xrotation Yrotation
        JOINT Spine1
        {
            OFFSET -0.000000 20.420147 0.000000
            CHANNELS 3 Zrotation Xrotation Yrotation
            JOINT Neck
            {
                OFFSET -0.000000 20.336288 1.848754
                CHANNELS 3 Zrotation Xrotation Yrotation
                JOINT Head
                {
                    OFFSET -0.000000 12.354461 -1.764923
                    CHANNELS 3 Zrotation Xrotation Yrotation
                    End Site
                    {
                        OFFSET -0.000000 22.061537 0.000000
                    }
                }
            }
            JOINT LeftShoulder
            {
                OFFSET 3.573296 18.396038 -0.314103
                CHANNELS 3 Zrotation Xrotation Yrotation
                JOINT LeftArm
                {
                    OFFSET 10.880760 0.000000 0.000000
                    CHANNELS 3 Zrotation Xrotation Yrotation
                    JOINT LeftForeArm
                    {
                        OFFSET 27.185530 0.000000 0.000000
                        CHANNELS 3 Zrotation Xrotation Yrotation
                        JOINT LeftHand
                        {
                            OFFSET 27.825975 0.000000 0.000000
                            CHANNELS 3 Zrotation Xrotation Yrotation
                            End Site
                            {
                                OFFSET 13.236923 0.000000 0.000000
                            }
                        }
                    }
                }
            }
            JOINT RightShoulder
            {
                OFFSET -3.474926 18.396038 -0.314103
                CHANNELS 3 Zrotation Xrotation Yrotation
                JOINT RightArm
                {
                    OFFSET -10.880760 0.000000 0.000000
                    CHANNELS 3 Zrotation Xrotation Yrotation
                    JOINT RightForeArm
                    {
                        OFFSET -27.185530 0.000000 0.000000
                        CHANNELS 3 Zrotation Xrotation Yrotation
                        JOINT RightHand
                        {
                            OFFSET -27.825975 0.000000 0.000000
                            CHANNELS 3 Zrotation Xrotation Yrotation
                            End Site
                            {
                                OFFSET -13.236923 0.000000 0.000000
                            }
                        }
                    }
                }
            }
        }
    }
    JOINT LeftUpLeg
    {
        OFFSET 8.824615 0.000000 0.000000
        CHANNELS 3 Zrotation Xrotation Yrotation
        JOINT LeftLeg
        {
            OFFSET -0.000000 -35.111282 0.000000
            CHANNELS 3 Zrotation Xrotation Yrotation
            JOINT LeftFoot
            {
                OFFSET -0.000000 -42.324711 0.000000
                CHANNELS 3 Zrotation Xrotation Yrotation
                JOINT LeftToeBase
                {
                    OFFSET -0.000000 -5.735999 13.236923
                    CHANNELS 3 Zrotation Xrotation Yrotation
                    End Site
                    {
                        OFFSET -0.000000 0.000000 3.529846
                    }
                }
            }
        }
    }
    JOINT RightUpLeg
    {
        OFFSET -8.824615 0.000000 0.000000
        CHANNELS 3 Zrotation Xrotation Yrotation
        JOINT RightLeg
        {
            OFFSET -0.000000 -35.111282 0.000000
            CHANNELS 3 Zrotation Xrotation Yrotation
            JOINT RightFoot
            {
                OFFSET -0.000000 -42.324711 0.000000
                CHANNELS 3 Zrotation Xrotation Yrotation
                JOINT RightToeBase
                {
                    OFFSET -0.000000 -5.735999 13.236923
                    CHANNELS 3 Zrotation Xrotation Yrotation
                    End Site
                    {
                        OFFSET -0.000000 0.000000 3.529846
                    }
                }
            }
        }
    }
}
MOTION
Frames:    14
Frame Time:    0.008333
-3.685157    83.862129    111.240532    7.310138    -38.417786    -167.062515    -2.622660    -1.202617    1.827675    1.095446    13.956241    1.721112    2.867197    13.382902    -4.933025    -0.583978    -22.777439    -5.401113    0.462406    14.820619    -1.674077    -49.168518    7.776193    -17.380285    1.210237    -0.974584    -4.134201    -10.714348    -1.330676    4.261981    4.750029    15.828819    -2.481585    37.724514    35.483730    33.970901    -12.710377    -21.334831    89.393372    12.904424    -10.185231    -9.469521    3.933690    -44.622070    -3.026436    -1.744343    4.596631    -3.980214    -2.844565    3.239847    -9.137935    0.617903    1.278184    -0.683365    -2.495854    -37.595032    2.684706    2.388244    -3.085089    -3.770476    0.359170    3.901111    -11.366472    0.031525    1.026093    -0.034051    
-3.770091    83.877853    110.932991    7.012332    -37.646168    -167.216232    -2.626712    -1.543268    1.754855    1.064472    13.637502    1.662973    2.862926    13.198570    -4.881109    -0.793179    -23.349785    -5.425514    0.537481    14.701063    -1.548482    -48.839031    7.375971    -17.050034    1.008336    -0.930918    -4.092905    -12.240466    -1.335602    4.108752    4.792685    15.754947    -2.789619    38.559708    34.369881    32.838276    -13.576487    -21.500460    88.319389    12.723080    -9.769238    -9.830994    3.769920    -43.624207    -3.095930    -1.752456    4.640460    -4.058675    -2.853962    3.172719    -9.139535    0.617327    1.156008    -0.682876    -2.606254    -36.625839    2.488209    2.454202    -2.975773    -3.633326    0.416943    3.775779    -11.334271    0.054989    0.906320    -0.059403    
-3.858400    83.893845    110.612404    6.712790    -36.862652    -167.373474    -2.638001    -1.890650    1.682587    1.034465    13.296224    1.605561    2.848404    12.983973    -4.821076    -0.962543    -23.861946    -5.429840    0.616994    14.585624    -1.417891    -48.507904    7.007439    -16.725445    0.870232    -0.898546    -4.047248    -13.371476    -1.332348    3.961719    4.829844    15.678858    -3.099622    39.357456    33.239628    31.744974    -14.495153    -21.602213    87.091446    12.269049    -9.264360    -10.126890    3.608207    -42.615383    -3.167605    -1.757213    4.705932    -4.131626    -2.864074    3.092354    -9.143228    0.609230    1.030803    -0.674068    -2.714673    -35.647930    2.293507    2.522314    -2.844432    -3.476993    0.475724    3.645186    -11.314222    0.081955    0.778141    -0.088548    
-3.948807    83.909950    110.281815    6.416661    -36.074207    -167.532074    -2.655185    -2.240824    1.612016    1.006638    12.935600    1.549856    2.823323    12.740175    -4.753716    -1.086884    -24.302879    -5.412070    0.700433    14.476218    -1.284817    -48.181572    6.678357    -16.412395    0.797120    -0.873188    -4.000027    -14.099768    -1.318793    3.827526    4.859960    15.601844    -3.406837    40.107182    32.111786    30.704582    -15.449414    -21.629515    85.719482    11.530894    -8.675795    -10.344572    3.453200    -41.604713    -3.238513    -1.759474    4.791499    -4.197526    -2.874500    2.999190    -9.151080    0.592978    0.905688    -0.656232    -2.817061    -34.669834    2.103398    2.591050    -2.693829    -3.305660    0.534210    3.511293    -11.303701    0.111937    0.643396    -0.120963    
-4.041322    83.926079    109.939781    6.124530    -35.276562    -167.692154    -2.677122    -2.594222    1.543206    0.981727    12.553889    1.495856    2.788997    12.466495    -4.679220    -1.166555    -24.671194    -5.371794    0.788152    14.372857    -1.149975    -47.862133    6.390389    -16.111547    0.786825    -0.851764    -3.952970    -14.433920    -1.294482    3.709988    4.882484    15.524210    -3.710939    40.810329    30.989773    29.714298    -16.431316    -21.574785    84.199677    10.489270    -8.006823    -10.476619    3.306474    -40.586853    -3.306911    -1.759735    4.896509    -4.256018    -2.885464    2.892403    -9.165257    0.568091    0.781064    -0.628830    -2.911305    -33.685776    1.917771    2.659216    -2.525236    -3.119719    0.592410    3.374317    -11.301470    0.145088    0.501741    -0.156817    
-4.135353    83.942101    109.587189    5.838853    -34.470955    -167.852737    -2.702604    -2.949344    1.476446    0.960671    12.152694    1.443762    2.746757    12.163684    -4.598432    -1.201358    -24.962893    -5.309114    0.880451    14.276198    -1.015083    -47.554607    6.146225    -15.825291    0.835999    -0.833677    -3.907954    -14.379064    -1.260969    3.612398    4.895965    15.446242    -4.009441    41.464588    29.885347    28.777472    -17.423014    -21.432377    82.540367    9.130845    -7.269646    -10.513915    3.170506    -39.563293    -3.370958    -1.758498    5.019505    -4.307450    -2.897459    2.771639    -9.186234    0.534433    0.658798    -0.591701    -2.994759    -32.696854    1.736820    2.725373    -2.341156    -2.922669    0.649737    3.235427    -11.303624    0.181334    0.354472    -0.196032    
-4.230326    83.957710    109.225128    5.561817    -33.659023    -168.012924    -2.730360    -3.304843    1.411909    0.943963    11.734479    1.393658    2.699708    11.833913    -4.512334    -1.194385    -25.176401    -5.225728    0.977673    14.187205    -0.881813    -47.264309    5.947510    -15.556131    0.940047    -0.820242    -3.865677    -13.942501    -1.221002    3.535932    4.900050    15.368936    -4.299775    42.067871    28.809168    27.897028    -18.402626    -21.199482    80.754509    7.446758    -6.482502    -10.450949    3.047218    -38.535889    -3.429146    -1.756505    5.158686    -4.352059    -2.910931    2.636647    -9.214343    0.492102    0.541438    -0.544949    -3.065594    -31.704226    1.561420    2.788043    -2.144534    -2.716590    0.705615    3.095749    -11.308904    0.220457    0.202891    -0.238376    
-4.325844    83.972580    108.854507    5.294807    -32.841694    -168.172226    -2.759340    -3.659627    1.349578    0.932042    11.301776    1.345541    2.650497    11.480077    -4.422044    -1.148995    -25.313061    -5.123726    1.080103    14.106356    -0.752006    -46.996384    5.794168    -15.305229    1.093135    -0.814485    -3.827322    -13.134304    -1.178721    3.480360    4.894301    15.292830    -4.579865    42.620655    27.769890    27.073738    -19.347939    -20.877024    78.856514    5.433934    -5.667377    -10.286304    2.937465    -37.505398    -3.480283    -1.753945    5.312197    -4.390755    -2.926672    2.487137    -9.249190    0.441655    0.430306    -0.489181    -3.122565    -30.708061    1.391347    2.846661    -1.938548    -2.505023    0.758845    2.956589    -11.313834    0.262134    0.047395    -0.283500    
-4.421368    83.986267    108.477234    5.039375    -32.022194    -168.329971    -2.788662    -4.012371    1.289598    0.925358    10.859116    1.299331    2.601979    11.105475    -4.328819    -1.070253    -25.374317    -5.006192    1.187234    14.034513    -0.627270    -46.755901    5.686235    -15.074388    1.288883    -0.820831    -3.793264    -11.968802    -1.139312    3.443897    4.879093    15.218465    -4.847214    43.122589    26.777061    26.309187    -20.234484    -20.470963    76.868019    3.102649    -4.851470    -10.024266    2.841998    -36.475113    -3.523865    -1.751273    5.477358    -4.424025    -2.945099    2.323278    -9.289588    0.384167    0.327533    -0.425586    -3.165191    -29.711315    1.226780    2.899994    -1.726507    -2.290004    0.809126    2.819149    -11.317472    0.305654    -0.110364    -0.330639    
-4.517291    83.998413    108.091972    4.794381    -31.196411    -168.487152    -2.817563    -4.364966    1.231327    0.923512    10.407437    1.254664    2.558439    10.711922    -4.232744    -0.966155    -25.365704    -4.876424    1.300231    13.971951    -0.508030    -46.546139    5.621652    -14.863016    1.522471    -0.844417    -3.763969    -10.452428    -1.107695    3.424527    4.854666    15.146098    -5.101805    43.578815    25.829235    25.598160    -21.047586    -19.986805    74.793388    0.452418    -4.055710    -9.671304    2.759869    -35.439014    -3.559793    -1.748458    5.652831    -4.453136    -2.966400    2.144150    -9.334263    0.320766    0.233208    -0.355409    -3.193948    -28.708063    1.066311    2.948282    -1.509788    -2.072896    0.855866    2.683384    -11.317889    0.350347    -0.270760    -0.379068    
-4.613043    84.008492    107.701576    4.561107    -30.369343    -168.643234    -2.845507    -4.715544    1.175004    0.927056    9.952571    1.211481    2.518851    10.304946    -4.135626    -0.836973    -25.291967    -4.736340    1.417405    13.919428    -0.396026    -46.371624    5.599656    -14.672298    1.787885    -0.890131    -3.740062    -8.605535    -1.089165    3.420702    4.821890    15.076511    -5.340965    43.989605    24.933971    24.942728    -21.766148    -19.438309    72.658737    -2.480586    -3.309506    -9.242094    2.690796    -34.402462    -3.587942    -1.745279    5.835564    -4.479007    -2.990010    1.950758    -9.380781    0.253777    0.147986    -0.281228    -3.209464    -27.703405    0.910833    2.991422    -1.292150    -1.856460    0.898437    2.550519    -11.314681    0.394958    -0.432106    -0.427431    
-4.708546    84.016022    107.307098    4.339365    -29.542053    -168.798523    -2.871964    -5.063916    1.120350    0.935885    9.498146    1.169629    2.487859    9.889547    -4.037740    -0.694046    -25.160809    -4.590838    1.537793    13.877783    -0.292038    -46.235325    5.617812    -14.502277    2.080727    -0.961903    -3.722438    -6.447525    -1.087596    3.431748    4.781830    15.009930    -5.563588    44.358261    24.092310    24.340611    -22.378538    -18.840105    70.480087    -5.657222    -2.635644    -8.754774    2.633786    -33.365856    -3.608450    -1.741960    6.023289    -4.501767    -3.014051    1.743769    -9.427624    0.185697    0.070725    -0.205812    -3.212836    -26.697992    0.760462    3.029375    -1.075229    -1.641497    0.936471    2.420203    -11.308351    0.438375    -0.593605    -0.474524    
-4.804339    84.020599    106.907143    4.127431    -28.710308    -168.954453    -2.896816    -5.412090    1.066865    0.950349    9.044632    1.128695    2.464196    9.467637    -3.939431    -0.538354    -24.978329    -4.440838    1.660700    13.846967    -0.195789    -46.139030    5.675109    -14.351521    2.400409    -1.063176    -3.712255    -3.986354    -1.105767    3.458068    4.735271    14.946325    -5.770382    44.690460    23.298391    23.785990    -22.881083    -18.203894    68.257675    -9.047905    -2.048239    -8.226897    2.587227    -32.322933    -3.621198    -1.737805    6.215089    -4.522492    -3.036739    1.522622    -9.472920    0.118983    -0.000837    -0.131888    -3.205393    -25.686007    0.614892    3.063005    -0.859699    -1.428031    0.970017    2.291243    -11.298907    0.479839    -0.755145    -0.519523    
-4.899077    84.021698    106.508186    3.927543    -27.886362    -169.109573    -2.919659    -5.755511    1.015146    0.970487    8.601663    1.089021    2.447760    9.049770    -3.842744    -0.375759    -24.755302    -4.290624    1.782327    13.827466    -0.108453    -46.085232    5.768862    -14.221595    2.741336    -1.193571    -3.710514    -1.284017    -1.144049    3.499735    4.684197    14.886791    -5.958066    44.985313    22.560879    23.283548    -23.265938    -17.554953    66.034348    -12.544353    -1.567198    -7.688941    2.550275    -31.288256    -3.626086    -1.732483    6.406581    -4.541319    -3.055131    1.291334    -9.514175    0.057261    -0.068299    -0.063480    -3.188912    -24.681923    0.477513    3.092297    -0.649598    -1.218829    0.998726    2.164104    -11.288544    0.517943    -0.913197    -0.560901    
